<svg width="50" height="50" viewBox="0 0 50 50" fill="none" xmlns="http://www.w3.org/2000/svg">
<g clip-path="url(#clip0_861_1165)">
<path d="M19.8587 7.80425C19.0772 9.23475 18.3085 10.6447 17.5395 12.0427C17.1185 12.0645 12.8977 11.9515 12.6882 11.912C12.6225 9.06375 12.5565 6.2125 12.4902 3.352C12.5895 3.3475 12.648 3.4105 12.7132 3.45C13.655 4.021 14.5955 4.594 15.5363 5.1665C16.896 5.994 18.2555 6.8215 19.615 7.64925C19.6902 7.695 19.7635 7.7435 19.8587 7.80425Z" fill="#090011"/>
<path d="M12.0588 32.4918C12.0308 34.0878 11.9908 35.6935 11.9485 37.3125C11.8775 37.3198 11.816 37.33 11.7543 37.3315C10.7815 37.3538 9.8085 37.3745 8.83575 37.3968C7.445 37.4285 6.05425 37.461 4.66325 37.4935C4.2695 37.5028 3.8755 37.5133 3.48175 37.5228C3.444 37.5238 3.406 37.523 3.36 37.523C3.36725 37.4838 3.3655 37.458 3.3765 37.44C4.85075 35.0173 6.3235 32.5935 7.798 30.1753C7.98525 30.243 11.7243 32.2773 12.0588 32.4918Z" fill="#090011"/>
<path d="M46.6868 12.5065C45.1933 14.9605 43.7105 17.3967 42.229 19.831C42.029 19.7562 38.3288 17.7443 37.99 17.5283C37.9575 17.2938 38.0408 13.158 38.087 12.709C38.1575 12.6618 38.239 12.672 38.318 12.6705C38.921 12.6575 39.5243 12.6458 40.1273 12.6323C41.4298 12.6033 42.7323 12.5743 44.0345 12.5435C44.8868 12.5235 45.7388 12.5 46.5908 12.4795C46.617 12.479 46.6438 12.494 46.6868 12.5065Z" fill="#090011"/>
<path d="M32.491 37.9515C34.107 37.9895 35.7062 38.027 37.3067 38.0645C37.364 38.1497 37.343 38.241 37.345 38.326C37.3668 39.2587 37.3837 40.1917 37.4055 41.1247C37.4317 42.2585 37.4615 43.3922 37.4892 44.526C37.5045 45.1452 37.5192 45.7642 37.5337 46.3835C37.5357 46.471 37.534 46.5587 37.534 46.645C37.4527 46.6697 37.4072 46.613 37.355 46.5812C36.2625 45.9175 35.171 45.2522 34.079 44.5877C32.8495 43.8397 31.6197 43.0922 30.3905 42.3442C30.3227 42.303 30.2572 42.258 30.203 42.223C30.1932 42.199 30.1882 42.1917 30.1877 42.184C30.1872 42.1767 30.19 42.1685 30.1932 42.1617C30.211 42.1257 30.2283 42.0895 30.2475 42.0542C30.9915 40.6935 31.7357 39.3325 32.491 37.9515Z" fill="#090011"/>
<path d="M30.1933 7.805C30.2238 7.778 30.2503 7.74675 30.2835 7.7265C32.6855 6.264 35.088 4.80225 37.4803 3.34675C37.5505 3.373 37.5368 3.4185 37.536 3.45475C37.5255 3.8565 37.5113 4.258 37.5025 4.6595C37.494 5.0455 37.4928 5.4315 37.4848 5.81725C37.4685 6.60475 37.4498 7.39225 37.4318 8.17975C37.4173 8.8225 37.4033 9.46525 37.3878 10.1083C37.3745 10.6545 37.3603 11.2008 37.345 11.7473C37.3435 11.8018 37.3335 11.8563 37.3265 11.919C37.262 11.926 37.2078 11.9355 37.1533 11.937C36.5748 11.9525 35.9965 11.9683 35.418 11.9813C34.55 12.001 33.6823 12.0188 32.8143 12.0373C32.782 12.038 32.7478 12.0328 32.7183 12.0423C32.5403 12.0998 32.4595 12.004 32.3823 11.86C32.0405 11.2225 31.6903 10.5895 31.3425 9.955C30.9988 9.3275 30.6538 8.70075 30.3115 8.07275C30.2663 7.9895 30.207 7.9105 30.1933 7.805Z" fill="#9C5AD1"/>
<path d="M19.8508 42.2115C17.4313 43.6858 15.0348 45.1455 12.636 46.6015C12.6033 46.6213 12.5655 46.6328 12.524 46.651C12.5093 46.6223 12.4903 46.6025 12.4905 46.5833C12.495 46.3743 12.503 46.1655 12.509 45.9568C12.5148 45.7558 12.5208 45.5548 12.524 45.3538C12.5298 44.9918 12.5313 44.6298 12.5388 44.2678C12.555 43.4878 12.5738 42.708 12.5918 41.928C12.606 41.317 12.6205 40.706 12.635 40.095C12.65 39.46 12.6653 38.8248 12.681 38.1898C12.6818 38.1585 12.69 38.1278 12.697 38.0835C12.744 38.075 12.789 38.061 12.8343 38.0598C13.0113 38.055 13.1883 38.0555 13.3653 38.0518C14.2658 38.0328 15.1665 38.0138 16.067 37.9928C16.477 37.9833 16.8868 37.9695 17.2965 37.9583C17.3685 37.9563 17.4405 37.958 17.5208 37.958C17.5533 38.0055 17.5883 38.0483 17.6145 38.096C18.1015 38.9848 18.5875 39.874 19.0738 40.7633C19.3013 41.1795 19.529 41.596 19.7555 42.0128C19.7853 42.068 19.81 42.126 19.8508 42.2115Z" fill="#9C5AD1"/>
<path d="M46.6625 37.5135C46.5803 37.5167 46.5108 37.5232 46.4415 37.5215C45.9593 37.5095 45.4773 37.4935 44.995 37.483C44.617 37.4747 44.239 37.474 43.861 37.4662C43.0813 37.4502 42.3015 37.4317 41.5218 37.414C40.8868 37.3995 40.2518 37.3855 39.6168 37.3697C39.1508 37.358 38.6848 37.344 38.2188 37.33C38.1803 37.3287 38.1418 37.3207 38.09 37.3142C38.0833 37.2435 38.0735 37.1815 38.0723 37.1195C38.0528 36.2352 38.0353 35.351 38.0155 34.4665C38.0028 33.8957 37.987 33.3252 37.9733 32.7545C37.9713 32.6667 37.973 32.579 37.973 32.5025C38.1305 32.3712 41.9905 30.2697 42.1918 30.1852C42.2693 30.2085 42.2933 30.2817 42.33 30.3417C42.6863 30.925 43.0413 31.5092 43.3968 32.093C44.2333 33.4665 45.0698 34.8403 45.9065 36.2137C46.1365 36.5915 46.3665 36.9692 46.5965 37.347C46.6248 37.3932 46.6555 37.4397 46.6625 37.5135Z" fill="#9C5AD1"/>
<path d="M42.5644 21.0185C44.9899 22.3462 47.4152 23.6747 49.8398 25.0039C47.4074 26.3359 44.9741 27.6666 42.5283 29.0048C42.4964 28.9583 42.4687 28.918 42.4423 28.875C41.9696 28.0993 41.4976 27.3229 41.0253 26.5468C40.7536 26.1003 40.4809 25.6542 40.2089 25.208C40.2013 25.1953 40.1828 25.1612 40.162 25.1357C40.1202 25.0839 40.1074 25.0441 40.1074 25.0097C40.1073 24.973 40.1218 24.9266 40.163 24.8623C40.4501 24.4142 40.7211 23.9544 40.996 23.5029C41.4809 22.7065 41.9647 21.9093 42.4501 21.1132L42.4511 21.1142C42.4745 21.0761 42.4988 21.0401 42.5253 21.0019C42.544 21.0083 42.5553 21.0135 42.5644 21.0185Z" fill="#FFD731" stroke="#9C5AD1" stroke-width="0.2"/>
<path d="M7.51846 21.017C7.52476 21.0254 7.53115 21.0356 7.53897 21.0502C7.5458 21.0629 7.55549 21.0841 7.56631 21.1019H7.56729C8.00737 21.8221 8.44549 22.5431 8.88467 23.264L9.86319 24.8714C9.88748 24.9113 9.90767 24.9503 9.9335 24.9984C9.90439 25.054 9.8794 25.1049 9.84854 25.1556C9.08861 26.406 8.3275 27.656 7.56631 28.9056C7.54787 28.9359 7.52723 28.963 7.50479 28.9945C7.32826 28.9034 6.88678 28.6676 6.29776 28.348C5.5904 27.9642 4.675 27.4655 3.76553 26.9671C2.85604 26.4688 1.95233 25.9707 1.26651 25.5912C0.923578 25.4014 0.634674 25.2416 0.427643 25.1254C0.330309 25.0707 0.251637 25.025 0.193268 24.9916C0.664118 24.7327 1.13589 24.4753 1.60733 24.2171C3.4408 23.2134 5.27436 22.2096 7.10831 21.2064C7.24092 21.1338 7.37411 21.0658 7.50089 20.9994C7.50783 21.0042 7.51348 21.0103 7.51846 21.017Z" fill="#FFD732" stroke="#9C5AD1" stroke-width="0.2"/>
<path d="M25.006 40.0825C25.0624 40.0934 25.1014 40.1268 25.1828 40.1762C26.4477 40.9445 27.7127 41.7139 28.9767 42.4839V42.4848C28.9903 42.4929 29.0027 42.5019 29.0177 42.5122C27.6762 44.9674 26.3452 47.4032 25.0138 49.8384C23.6803 47.4015 22.3475 44.9643 21.0079 42.5151C21.0224 42.5028 21.033 42.4926 21.0441 42.4858C22.3147 41.7116 23.5871 40.9394 24.8585 40.1665C24.9075 40.1366 24.9556 40.1099 25.006 40.0825Z" fill="#FFD732" stroke="#9C5AD1" stroke-width="0.2"/>
<path d="M29.0203 7.49023L29.0183 7.49219H29.0173C27.6868 8.30132 26.3584 9.11267 25.0222 9.9209C24.9668 9.89416 24.9233 9.87514 24.8797 9.84863C23.6155 9.08042 22.3508 8.31195 21.0877 7.54199V7.54102L21.0164 7.48633C22.3474 5.04648 23.6793 2.60709 25.0115 0.167969C26.343 2.59848 27.6737 5.03003 29.0203 7.49023Z" fill="#FFD732" stroke="#9C5AD1" stroke-width="0.2"/>
<path d="M3.35426 12.5052C3.38826 12.4895 3.40226 12.477 3.41601 12.4772C3.97851 12.4892 4.54101 12.5022 5.10351 12.515C5.89926 12.5327 6.69501 12.5502 7.49076 12.568C8.13376 12.5825 8.77676 12.5975 9.41976 12.6122C10.1753 12.6297 10.931 12.6465 11.6865 12.6655C11.7655 12.6675 11.844 12.6822 11.9298 12.6917C11.9383 12.751 11.9495 12.7967 11.9508 12.843C11.969 13.5825 11.9863 14.322 12.0028 15.0615C12.0198 15.817 12.036 16.5727 12.0523 17.3282C12.0535 17.3842 12.0525 17.4402 12.0525 17.4972C11.9835 17.587 11.8828 17.6235 11.7933 17.6732C11.4205 17.88 11.0458 18.0827 10.672 18.2872C9.83951 18.7425 9.0075 19.1985 8.17476 19.6532C8.06251 19.7145 7.94726 19.77 7.82476 19.8327C7.78351 19.7807 7.74451 19.741 7.71626 19.6947C7.04226 18.5895 6.36951 17.4835 5.69626 16.3777C4.96451 15.1757 4.23226 13.9742 3.50026 12.7722C3.44701 12.6852 3.38876 12.6005 3.35426 12.5052Z" fill="#9C5AD1"/>
<path d="M37.192 32.9128C37.2305 33.1498 37.323 37.0097 37.299 37.2832C37.2922 37.2877 37.2858 37.2925 37.2788 37.2965C37.272 37.3005 37.2648 37.3068 37.2578 37.3065C35.8355 37.274 34.413 37.241 32.9908 37.2073C32.976 37.207 32.9613 37.1967 32.9473 37.1895C32.9403 37.186 32.9352 37.179 32.9245 37.1695C32.957 37.106 32.9878 37.0415 33.022 36.9788C33.4533 36.189 33.886 35.4005 34.315 34.6095C34.386 34.4788 34.4758 34.3823 34.6108 34.3098C35.41 33.88 36.2048 33.441 37.0013 33.006C37.0623 32.9727 37.126 32.945 37.192 32.9128Z" fill="#090011"/>
<path d="M12.7293 37.3082C12.7045 37.048 12.7958 33.1547 12.8305 32.9142C12.876 32.9345 12.9205 32.9508 12.9618 32.9733C13.801 33.4308 14.6395 33.8898 15.4793 34.3463C15.5598 34.39 15.6198 34.4447 15.6643 34.5267C16.132 35.3877 16.6028 36.2475 17.0723 37.1078C17.0833 37.128 17.0893 37.151 17.099 37.1765C17.076 37.1878 17.0553 37.2063 17.0343 37.2068C15.605 37.2415 14.176 37.2745 12.7293 37.3082Z" fill="#090011"/>
<path d="M12.8333 17.0865C12.7943 16.864 12.7003 13.039 12.7255 12.728C12.7315 12.7225 12.737 12.7165 12.7435 12.712C12.7498 12.7078 12.7573 12.7025 12.764 12.7025C14.203 12.7335 15.642 12.7648 17.0995 12.7968C17.0853 12.8455 17.0808 12.8838 17.0638 12.915C16.5983 13.769 16.1313 14.622 15.6655 15.4758C15.626 15.548 15.5783 15.6055 15.5035 15.6463C14.635 16.1185 13.768 16.5933 12.9003 17.0668C12.8805 17.0773 12.856 17.08 12.8333 17.0865Z" fill="#090011"/>
<path d="M32.9205 12.8228C33.147 12.7835 37.0135 12.691 37.2885 12.7158C37.2948 12.7208 37.303 12.7248 37.3068 12.7313C37.3105 12.7378 37.3113 12.7465 37.311 12.7545C37.2795 14.1693 37.2478 15.5843 37.2155 16.999C37.215 17.0223 37.207 17.0458 37.201 17.0685C37.1993 17.0748 37.1918 17.0793 37.1803 17.0915C37.119 17.0603 37.0543 17.0295 36.9915 16.9953C36.1948 16.5598 35.399 16.1225 34.6008 15.6898C34.4835 15.6263 34.3978 15.5475 34.333 15.4278C33.894 14.6145 33.4483 13.805 33.0053 12.994C32.9753 12.9395 32.95 12.8828 32.9205 12.8228Z" fill="#090011"/>
<path d="M18.3997 37.9373C18.5142 37.929 18.5918 37.92 18.6695 37.9185C18.9108 37.9138 19.152 37.9142 19.3932 37.9087C20.036 37.8945 20.679 37.8815 21.3217 37.8603C21.4895 37.8548 21.63 37.8933 21.7742 37.9825C22.5397 38.4565 23.3113 38.9205 24.08 39.389C24.1398 39.4255 24.2158 39.4458 24.2443 39.5388C23.0113 40.289 21.7762 41.0405 20.529 41.7992C20.4872 41.744 20.4493 41.705 20.424 41.659C20.1105 41.0883 19.7992 40.5163 19.487 39.945C19.1592 39.3455 18.8305 38.7465 18.503 38.1468C18.4722 38.0915 18.4467 38.0333 18.3997 37.9373Z" fill="#9C5AD1"/>
<path d="M30.3496 38.0043C30.6716 38.0113 30.9952 38.0125 31.3154 38.017C31.3701 38.0177 31.4242 38.0191 31.4765 38.0209V38.0218C31.4729 38.0279 31.4682 38.0353 31.4638 38.0433C31.269 38.4038 31.0729 38.764 30.8759 39.1234C30.4357 39.9274 29.9954 40.7314 29.5537 41.5345C29.5423 41.5553 29.5324 41.5767 29.5244 41.5941C29.5158 41.6125 29.5085 41.6275 29.5009 41.641C29.4977 41.6467 29.4933 41.651 29.4902 41.6556C29.4884 41.6547 29.4862 41.6537 29.4843 41.6527C29.4504 41.6341 29.406 41.6079 29.3515 41.5765C29.2422 41.5136 29.0954 41.4275 28.9238 41.3256C28.5806 41.1217 28.1377 40.8555 27.6953 40.5863C27.253 40.3172 26.8109 40.0454 26.4677 39.8314C26.2962 39.7245 26.1494 39.6323 26.04 39.5619C26.0058 39.5398 25.9767 39.5182 25.9511 39.5013C25.9549 39.4988 25.9588 39.496 25.9628 39.4935L28.373 38.0248C28.4497 37.9778 28.5236 37.9578 28.6123 37.9603L30.3496 38.0043Z" fill="#FFD732" stroke="#9C5AD1" stroke-width="0.2"/>
<path d="M38.0367 18.5411C38.0414 18.544 38.0468 18.5469 38.0523 18.5499C38.4551 18.7675 38.8572 18.9883 39.2594 19.2081C40.0349 19.6325 40.8105 20.0564 41.5855 20.4815C41.617 20.4988 41.6455 20.5179 41.6764 20.5382C40.9587 21.7193 40.2395 22.8995 39.5211 24.0802C39.4982 24.0453 39.4785 24.0084 39.4537 23.9678C39.0399 23.2884 38.6262 22.6087 38.2135 21.9288C38.1914 21.8925 38.1678 21.8571 38.1451 21.8233C38.122 21.7888 38.1004 21.7555 38.0797 21.7227C38.0382 21.657 38.0064 21.5967 37.9898 21.5362C37.9732 21.4757 37.9692 21.4078 37.9713 21.3302C37.9723 21.2915 37.9749 21.2524 37.9771 21.211C37.9794 21.1703 37.9816 21.1276 37.982 21.085C37.9858 20.7476 37.9904 20.4102 37.9977 20.0733C38.0084 19.5835 38.0213 19.0936 38.0338 18.6036C38.0343 18.5827 38.0355 18.5617 38.0367 18.5411Z" fill="#FFD732" stroke="#9C5AD1" stroke-width="0.2"/>
<path d="M10.505 25.9208C10.5132 25.9341 10.5218 25.9482 10.5313 25.9657C10.5403 25.9823 10.5509 26.0023 10.5626 26.0214C10.8566 26.5009 11.1479 26.9819 11.4405 27.4628L11.9464 28.287C12.0216 28.4043 12.055 28.521 12.0509 28.6601C12.0379 29.0854 12.0383 29.5178 12.0294 29.9394C12.0186 30.4452 12.0036 30.9516 11.9893 31.4579L11.9884 31.4589C11.9551 31.4419 11.9036 31.4168 11.836 31.3808C11.7252 31.3217 11.5752 31.24 11.3995 31.1444C11.0482 30.9533 10.5941 30.7038 10.1417 30.454C9.68916 30.2042 9.2384 29.9541 8.89461 29.7616C8.72295 29.6655 8.57786 29.5843 8.47273 29.5243C8.42419 29.4966 8.38453 29.4726 8.35457 29.455C9.07074 28.2763 9.78733 27.098 10.504 25.9198L10.505 25.9208Z" fill="#FFD732" stroke="#9C5AD1" stroke-width="0.2"/>
<path d="M10.5143 24.2435C10.3565 24.0593 8.9765 21.821 8.31125 20.6768C8.28 20.6228 8.25525 20.565 8.2255 20.5053C8.2595 20.4785 8.28225 20.455 8.3095 20.4403C9.544 19.7665 10.779 19.0935 12.0145 18.4213C12.026 18.415 12.0448 18.4223 12.077 18.4243C12.0813 18.4663 12.089 18.511 12.0898 18.5558C12.0938 18.7728 12.094 18.99 12.099 19.207C12.1148 19.914 12.1288 20.6213 12.1503 21.3283C12.155 21.4873 12.121 21.6225 12.0368 21.7593C11.56 22.5325 11.0908 23.3103 10.6188 24.0863C10.5893 24.1338 10.5568 24.1795 10.5143 24.2435Z" fill="#9C5AD1"/>
<path d="M39.5233 25.7757C39.665 25.9447 41.712 29.3062 41.7958 29.505C41.7605 29.5297 41.7248 29.56 41.6845 29.582C40.7965 30.0685 39.9078 30.554 39.0193 31.04C38.7585 31.1827 38.499 31.3282 38.237 31.4687C38.1543 31.513 38.0775 31.5755 37.9885 31.5827C37.93 31.5537 37.9378 31.5095 37.937 31.4717C37.9328 31.295 37.9323 31.118 37.9285 30.9412C37.912 30.178 37.8978 29.4145 37.8755 28.6515C37.8713 28.5082 37.9035 28.3885 37.9788 28.2665C38.4373 27.52 38.8885 26.769 39.3448 26.0212C39.3935 25.941 39.4328 25.851 39.5233 25.7757Z" fill="#9C5AD1"/>
<path d="M24.0917 10.4896C24.0902 10.4906 24.0894 10.4934 24.0878 10.4945C24.0561 10.5154 24.0349 10.5245 23.9911 10.5511C23.4079 10.9068 22.8237 11.262 22.2401 11.6175C22.0565 11.7295 21.8674 11.8419 21.6835 11.9603C21.6012 12.0133 21.521 12.0375 21.4237 12.0355C20.8221 12.0223 20.2141 12.0169 19.6142 12.0052C19.2697 11.9985 18.926 11.985 18.58 11.974C18.5728 11.9737 18.5655 11.9724 18.5585 11.972C19.2177 10.7517 19.885 9.53609 20.5458 8.33431C21.728 9.05217 22.91 9.77077 24.0917 10.4896Z" fill="#FFD732" stroke="#9C5AD1" stroke-width="0.2"/>
<path d="M31.593 12.0617C31.5243 12.067 31.4628 12.0745 31.4013 12.076C30.5095 12.0957 29.618 12.1145 28.7263 12.1332C28.686 12.134 28.6458 12.1312 28.6058 12.1345C28.4975 12.1437 28.4048 12.1142 28.3105 12.0562C27.5918 11.6145 26.8695 11.1782 26.1488 10.7397C26.0255 10.6647 25.9035 10.588 25.7668 10.5032C25.8123 10.4635 25.843 10.4275 25.8818 10.404C26.808 9.8395 27.7353 9.2765 28.6623 8.71325C28.9365 8.5465 29.2105 8.37975 29.4955 8.206C29.5293 8.249 29.5628 8.2815 29.5845 8.32075C29.8033 8.714 30.0213 9.1075 30.237 9.5025C30.661 10.278 31.084 11.054 31.506 11.8307C31.5425 11.8985 31.5985 11.9617 31.593 12.0617Z" fill="#9C5AD1"/>
</g>
<defs>
<clipPath id="clip0_861_1165">
<rect width="50" height="50" fill="white"/>
</clipPath>
</defs>
</svg>
